<svg id="delete" xmlns="http://www.w3.org/2000/svg" width="29" height="29" viewBox="0 0 29 29">
  <g id="invisible_box" data-name="invisible box">
    <rect id="Rectangle_60" data-name="Rectangle 60" width="29" height="29" fill="none"/>
  </g>
  <g id="icons_Q2" data-name="icons Q2" transform="translate(3.021 1.813)">
    <path id="Path_283" data-name="Path 283" d="M27.958,6.5a1.39,1.39,0,0,1-.362.967,1.027,1.027,0,0,1-.846.362H6.269A1.269,1.269,0,0,1,5,6.746a1.39,1.39,0,0,1,.362-.967,1.027,1.027,0,0,1,.846-.363H12.25V4.208A1.208,1.208,0,0,1,13.458,3H19.5a1.208,1.208,0,0,1,1.208,1.208V5.417h5.981A1.269,1.269,0,0,1,27.958,6.5Z" transform="translate(-4.999 -3)" fill="#505050"/>
    <path id="Path_284" data-name="Path 284" d="M10.4,15h0A1.208,1.208,0,0,0,9.2,16.329l1.571,15.708a1.208,1.208,0,0,0,1.208,1.087H24.3a1.208,1.208,0,0,0,1.208-1.087l1.571-15.708A1.208,1.208,0,0,0,25.871,15Z" transform="translate(-6.658 -7.75)" fill="#505050"/>
  </g>
</svg>
