<svg xmlns="http://www.w3.org/2000/svg" width="28" height="28" viewBox="0 0 28 28">
  <g id="delete" transform="translate(0 -0.199)">
    <g id="invisible_box" data-name="invisible box">
      <rect id="Rectangle_60" data-name="Rectangle 60" width="28" height="28" transform="translate(0 0.199)" fill="none"/>
    </g>
    <g id="icons_Q2" data-name="icons Q2" transform="translate(3.018 1.811)">
      <path id="Path_283" data-name="Path 283" d="M27.938,6.5a1.388,1.388,0,0,1-.362.966,1.026,1.026,0,0,1-.845.362H19.487A1.207,1.207,0,0,1,18.28,6.622V5.415H14.658V6.622a1.207,1.207,0,0,1-1.207,1.207H6.267A1.268,1.268,0,0,1,5,6.742a1.388,1.388,0,0,1,.362-.966,1.026,1.026,0,0,1,.845-.362h6.036V4.207A1.207,1.207,0,0,1,13.451,3h6.036a1.207,1.207,0,0,1,1.207,1.207V5.415H26.67A1.268,1.268,0,0,1,27.938,6.5Z" transform="translate(-4.999 -3)" fill="#505050"/>
      <path id="Path_284" data-name="Path 284" d="M24.649,16.087,23.2,30.694H13.059L11.611,16.087A1.207,1.207,0,0,0,10.4,15h0A1.207,1.207,0,0,0,9.2,16.328l1.569,15.694a1.207,1.207,0,0,0,1.207,1.087H24.287a1.207,1.207,0,0,0,1.207-1.087l1.569-15.694A1.207,1.207,0,0,0,25.856,15h0A1.207,1.207,0,0,0,24.649,16.087Z" transform="translate(-6.66 -7.756)" fill="#505050"/>
    </g>
  </g>
</svg>
