<svg xmlns="http://www.w3.org/2000/svg" width="58" height="40" viewBox="0 0 58 40">
  <g id="exit" transform="translate(14 -4)">
    <path id="Path_7" data-name="Path 7" d="M44,42V6a2,2,0,0,0-2-2H6A2,2,0,0,0,4,6v5a2,2,0,0,0,2.3,2A2.1,2.1,0,0,0,8,10.9V8H40V40H8V37a2,2,0,0,0-2.3-2A2.1,2.1,0,0,0,4,37.1V42a2,2,0,0,0,2,2H42A2,2,0,0,0,44,42Z" fill="#505050"/>
    <path id="Path_8" data-name="Path 8" d="M13.515,34.4l-8.9-9a1.9,1.9,0,0,1,0-2.8l8.9-9a2.1,2.1,0,0,1,2.7-.2,1.9,1.9,0,0,1,.2,3l-5.6,5.6h19.2a2,2,0,0,1,0,4h-19.2l5.6,5.6a1.9,1.9,0,0,1-.2,3,2.1,2.1,0,0,1-2.7-.2Z" transform="translate(-18)" fill="#505050"/>
  </g>
</svg>
