<svg xmlns="http://www.w3.org/2000/svg" width="40.015" height="40.015" viewBox="0 0 40.015 40.015">
  <g id="magnify-more" transform="translate(-4 -4)">
    <g id="Group_2" data-name="Group 2">
      <path id="Path_10" data-name="Path 10" d="M24,17H21V14a2,2,0,0,0-4,0v3H14a2,2,0,0,0,0,4h3v3a2,2,0,0,0,4,0V21h3a2,2,0,0,0,0-4Z" fill="#505050"/>
      <path id="Path_11" data-name="Path 11" d="M43.4,40.6,30.9,28.1a15.048,15.048,0,1,0-2.8,2.8L40.6,43.4a1.981,1.981,0,1,0,2.8-2.8ZM19,30A11,11,0,1,1,30,19,11,11,0,0,1,19,30Z" fill="#505050"/>
    </g>
  </g>
</svg>
