<?xml version="1.0" encoding="UTF-8"?>
<svg id="Layer_2" data-name="Layer 2" xmlns="http://www.w3.org/2000/svg" viewBox="0 0 313.65 184.34">
  <defs>
    <style>
      .cls-1 {
        fill: #0d1f26;
      }
    </style>
  </defs>
  <g id="Layer_1-2" data-name="Layer 1">
    <g id="Layer_2-2" data-name="Layer 2">
      <g id="Layer_1-2" data-name="Layer 1-2">
        <path class="cls-1" d="m134,66.67l13.84,13.84c4.88,4.88,12.78,4.88,17.66,0,0,0,0,0,0,0l22.67-22.67,22.62-22.67c4.88-4.88,4.88-12.78,0-17.66,0,0,0,0,0,0l-13.8-13.84c-4.88-4.88-12.78-4.88-17.66,0,0,0,0,0,0,0l-13.87,13.84c-4.88,4.88-12.78,4.88-17.66,0,0,0,0,0,0,0l-13.79-13.84c-4.88-4.88-12.78-4.88-17.66,0,0,0,0,0,0,0l-22.72,22.67-31.51,31.51-31.5,31.5L3.66,116c-4.88,4.88-4.88,12.78,0,17.66,0,0,0,0,0,0l13.84,13.78c4.88,4.88,12.78,4.88,17.66,0,0,0,0,0,0,0l26.93-26.6,31.51-31.51,22.67-22.67c4.86-4.89,12.77-4.92,17.66-.06.02.02.04.04.06.06Z"/>
        <polygon class="cls-1" points="298.4 105.1 266.89 73.59 235.39 42.08 203.88 73.59 156.14 121.33 124.64 89.82 93.13 121.33 124.64 152.83 156.14 184.34 187.65 152.83 235.39 105.1 266.89 136.6 282.14 151.85 313.65 120.35 298.4 105.1"/>
      </g>
    </g>
  </g>
</svg>